<svg xmlns="http://www.w3.org/2000/svg" version="1.1" xmlns:xlink="http://www.w3.org/1999/xlink" xmlns:svgjs="http://svgjs.dev/svgjs" width="1000" height="532" viewBox="0 0 1000 532"><g transform="matrix(1,0,0,1,-0.6060606060606233,0.2794710985914435)"><svg viewBox="0 0 396 211" data-background-color="#a437db" preserveAspectRatio="xMidYMid meet" height="532" width="1000" xmlns="http://www.w3.org/2000/svg" xmlns:xlink="http://www.w3.org/1999/xlink"><g id="tight-bounds" transform="matrix(1,0,0,1,0.2400000000000091,-0.11084286053156234)"><svg viewBox="0 0 395.52 211.22168572106312" height="211.22168572106312" width="395.52"><g><svg viewBox="0 0 395.52 211.22168572106312" height="211.22168572106312" width="395.52"><g transform="matrix(1,0,0,1,0,167.2912963737593)"><svg viewBox="0 0 395.52 43.9303893473038" height="43.9303893473038" width="395.52"><g id="textblocktransform"><svg viewBox="0 0 395.52 43.9303893473038" height="43.9303893473038" width="395.52" id="textblock"><g><svg viewBox="0 0 395.52 25.069407058405186" height="25.069407058405186" width="395.52"><g transform="matrix(1,0,0,1,0,0)"><svg width="395.52" viewBox="1.7999999523162842 -35 562.4100341796875 35.650001525878906" height="25.069407058405186" data-palette-color="#bb84e8"><path d="M19.9-30.15L13.4-30.15 13.4-4.15 19.9-4.15 19.9 0 1.8 0 1.8-4.15 8.25-4.15 8.25-30.15 1.8-30.15 1.8-34.3 19.9-34.3 19.9-30.15ZM67.65-34.3L67.65-30.15 61.4-30.15 61.4 0.3 58.85 0.35 34.8-27 34.8-4.15 40.95-4.15 40.95 0 23.45 0 23.45-4.15 29.9-4.15 29.9-30.15 23.45-30.15 23.45-34.3 34.8-34.3 56.6-8.95 56.6-30.15 50.15-30.15 50.15-34.3 67.65-34.3ZM106.65-4.15L111-4.15 111 0 94.9 0 94.9-4.15 100.15-4.15 89.6-16.35 81.95-9.85 81.95-4.15 88.15-4.15 88.15 0 70.35 0 70.35-4.15 76.8-4.15 76.8-30.15 70.35-30.15 70.35-34.3 88.15-34.3 88.15-30.15 81.95-30.15 81.95-14.65 100.15-30.15 94.2-30.15 94.2-34.3 110.25-34.3 110.25-30.15 106-30.15 93.2-19.35 106.65-4.15ZM169.59-34.3L169.59-30.15 163.99-30.15 153.04 0.65 150.49 0.65 139.94-24.35 129.94 0.65 127.34 0.65 116.34-30.15 110.84-30.15 110.84-34.3 127.64-34.3 127.64-30.15 121.79-30.15 129.14-8.05 138.89-33.55 141.69-33.55 151.89-8 158.94-30.15 152.84-30.15 152.84-34.3 169.59-34.3ZM205.39-23.3L200.79-23.3 200.79-30.15 182.99-30.15 182.99-19.2 190.89-19.2 190.89-23.85 194.89-23.85 194.89-10.75 190.89-10.75 190.89-15.4 182.99-15.4 182.99-4.15 200.79-4.15 200.79-11 205.39-11 205.39 0 171.49 0 171.49-4.15 177.89-4.15 177.89-30.15 171.49-30.15 171.49-34.3 205.39-34.3 205.39-23.3ZM238.24-11.9L243.09-11.9 243.09 0 210.94 0 210.94-4.15 217.39-4.15 217.39-30.15 210.94-30.15 210.94-34.3 228.94-34.3 228.94-30.15 222.54-30.15 222.54-4.15 238.24-4.15 238.24-11.9ZM274.44-11.9L279.29-11.9 279.29 0 247.14 0 247.14-4.15 253.59-4.15 253.59-30.15 247.14-30.15 247.14-34.3 265.14-34.3 265.14-30.15 258.74-30.15 258.74-4.15 274.44-4.15 274.44-11.9ZM316.63 0.65Q311.63 0.65 307.56-1.63 303.48-3.9 301.16-7.95 298.83-12 298.83-17.15L298.83-17.15Q298.83-22.35 301.16-26.4 303.48-30.45 307.56-32.73 311.63-35 316.63-35L316.63-35Q321.58-35 325.66-32.73 329.73-30.45 332.06-26.38 334.38-22.3 334.38-17.15L334.38-17.15Q334.38-12 332.06-7.95 329.73-3.9 325.66-1.63 321.58 0.65 316.63 0.65L316.63 0.65ZM316.63-3.65Q320.23-3.65 323.06-5.38 325.88-7.1 327.46-10.18 329.03-13.25 329.03-17.15L329.03-17.15Q329.03-21.1 327.46-24.18 325.88-27.25 323.06-28.98 320.23-30.7 316.63-30.7L316.63-30.7Q312.98-30.7 310.13-28.98 307.28-27.25 305.73-24.15 304.18-21.05 304.18-17.15L304.18-17.15Q304.18-13.2 305.73-10.13 307.28-7.05 310.11-5.35 312.93-3.65 316.63-3.65L316.63-3.65ZM355.58-34.3Q360.93-34.3 365.43-32.38 369.93-30.45 372.6-26.58 375.28-22.7 375.28-17.15L375.28-17.15Q375.28-11.6 372.6-7.73 369.93-3.85 365.43-1.93 360.93 0 355.58 0L355.58 0 338.78 0 338.78-4.15 345.23-4.15 345.23-30.15 338.78-30.15 338.78-34.3 355.58-34.3ZM355.08-4.15Q361.48-4.15 365.68-7.33 369.88-10.5 369.88-17.15L369.88-17.15Q369.88-23.85 365.68-27 361.48-30.15 355.08-30.15L355.08-30.15 350.38-30.15 350.38-4.15 355.08-4.15ZM413.53-23.3L408.93-23.3 408.93-30.15 391.13-30.15 391.13-19.2 399.03-19.2 399.03-23.85 403.03-23.85 403.03-10.75 399.03-10.75 399.03-15.4 391.13-15.4 391.13-4.15 408.93-4.15 408.93-11 413.53-11 413.53 0 379.63 0 379.63-4.15 386.03-4.15 386.03-30.15 379.63-30.15 379.63-34.3 413.53-34.3 413.53-23.3ZM435.37-19.4Q441.97-17.55 445.32-15.05 448.67-12.55 448.67-8.4L448.67-8.4Q448.67-5.7 447.2-3.63 445.72-1.55 443.12-0.45 440.52 0.65 437.27 0.65L437.27 0.65Q433.72 0.65 430.52-0.85 427.32-2.35 424.62-5.05L424.62-5.05 424.62-0.05 420.07-0.05 420.07-11.6 422.97-11.75Q425.62-7.9 429.42-5.7 433.22-3.5 436.97-3.5L436.97-3.5Q439.77-3.5 441.55-4.7 443.32-5.9 443.32-7.95L443.32-7.95Q443.32-10.2 440.82-11.83 438.32-13.45 432.32-15L432.32-15Q426.07-16.65 423.17-19.33 420.27-22 420.27-25.9L420.27-25.9Q420.27-28.6 421.75-30.68 423.22-32.75 425.72-33.88 428.22-35 431.17-35L431.17-35Q438.12-35 442.42-29.9L442.42-29.9 442.42-34.3 446.97-34.3 446.97-22.9 444.17-22.75Q442.07-26.75 439.02-28.8 435.97-30.85 432.32-30.85L432.32-30.85Q429.37-30.85 427.5-29.58 425.62-28.3 425.62-26.15L425.62-26.15Q425.62-23.95 427.9-22.38 430.17-20.8 435.37-19.4L435.37-19.4ZM469.97-19.4Q476.57-17.55 479.92-15.05 483.27-12.55 483.27-8.4L483.27-8.4Q483.27-5.7 481.79-3.63 480.32-1.55 477.72-0.45 475.12 0.65 471.87 0.65L471.87 0.65Q468.32 0.65 465.12-0.85 461.92-2.35 459.22-5.05L459.22-5.05 459.22-0.05 454.67-0.05 454.67-11.6 457.57-11.75Q460.22-7.9 464.02-5.7 467.82-3.5 471.57-3.5L471.57-3.5Q474.37-3.5 476.14-4.7 477.92-5.9 477.92-7.95L477.92-7.95Q477.92-10.2 475.42-11.83 472.92-13.45 466.92-15L466.92-15Q460.67-16.65 457.77-19.33 454.87-22 454.87-25.9L454.87-25.9Q454.87-28.6 456.34-30.68 457.82-32.75 460.32-33.88 462.82-35 465.77-35L465.77-35Q472.72-35 477.02-29.9L477.02-29.9 477.02-34.3 481.57-34.3 481.57-22.9 478.77-22.75Q476.67-26.75 473.62-28.8 470.57-30.85 466.92-30.85L466.92-30.85Q463.97-30.85 462.09-29.58 460.22-28.3 460.22-26.15L460.22-26.15Q460.22-23.95 462.5-22.38 464.77-20.8 469.97-19.4L469.97-19.4ZM521.67-23.3L517.07-23.3 517.07-30.15 499.27-30.15 499.27-19.2 507.17-19.2 507.17-23.85 511.17-23.85 511.17-10.75 507.17-10.75 507.17-15.4 499.27-15.4 499.27-4.15 517.07-4.15 517.07-11 521.67-11 521.67 0 487.77 0 487.77-4.15 494.17-4.15 494.17-30.15 487.77-30.15 487.77-34.3 521.67-34.3 521.67-23.3ZM559.16-30.15L547.21-13.4 547.21-4.15 553.81-4.15 553.81 0 535.37 0 535.37-4.15 542.06-4.15 542.06-13.1 529.76-30.15 524.91-30.15 524.91-34.3 540.66-34.3 540.66-30.15 535.76-30.15 545.12-16.65 554.12-30.15 548.46-30.15 548.46-34.3 564.21-34.3 564.21-30.15 559.16-30.15Z" opacity="1" transform="matrix(1,0,0,1,0,0)" fill="#bb84e8" class="wordmark-text-0" data-fill-palette-color="primary" id="text-0"></path></svg></g></svg></g><g transform="matrix(1,0,0,1,75.54432000000001,30.98769239912525)"><svg viewBox="0 0 244.43135999999996 12.94269694817855" height="12.94269694817855" width="244.43135999999996"><g transform="matrix(1,0,0,1,0,0)"><svg width="244.43135999999996" viewBox="1.2999999523162842 -39.099998474121094 974.4100341796875 51.599998474121094" height="12.94269694817855" data-palette-color="#471aa0"><path d="M1.3-35L1.3-35 24.25-35Q24.4-35 24.5-34.93 24.6-34.85 24.7-34.73 24.8-34.6 24.8-34.45L24.8-34.45Q24.8-33.25 24.8-32.33 24.8-31.4 24.8-30.2L24.8-30.2 1.85-30.2Q1.7-30.2 1.58-30.28 1.45-30.35 1.38-30.48 1.3-30.6 1.3-30.75L1.3-30.75Q1.3-31.9 1.3-32.88 1.3-33.85 1.3-35ZM7.35-15.35L7.35-20 21.45-20Q21.6-20 21.73-19.93 21.85-19.85 21.93-19.75 22-19.65 22-19.45L22-19.45Q22-18.7 22-18 22-17.3 22-16.68 22-16.05 22-15.35L22-15.35 7.35-15.35ZM24.8 0L4.65 0Q4.55 0 4.45-0.05 4.35-0.1 4.28-0.18 4.2-0.25 4.15-0.35 4.1-0.45 4.1-0.55L4.1-0.55Q4.1-2.6 4.1-5.45 4.1-8.3 4.1-11.65 4.1-15 4.1-18.57 4.1-22.15 4.1-25.7 4.1-29.25 4.1-32.4L4.1-32.4 10-32.4 9.65-31.5Q9.65-30.45 9.65-29.3 9.65-28.15 9.65-27L9.65-27Q9.65-24.45 9.65-21.68 9.65-18.9 9.65-16.05 9.65-13.2 9.65-10.35 9.65-7.5 9.65-4.8L9.65-4.8 24.25-4.8Q24.5-4.8 24.65-4.65 24.8-4.5 24.8-4.25L24.8-4.25Q24.8-3.15 24.8-2.13 24.8-1.1 24.8 0L24.8 0ZM65.6 0L65.6 0Q64.95 0 64 0 63.05 0 62.15 0 61.25 0 60.6 0L60.6 0Q60.45 0 60.32-0.08 60.2-0.15 60.12-0.25 60.05-0.35 60.05-0.55L60.05-0.55Q60.05-2.5 60.05-4.42 60.05-6.35 60.05-8.25 60.05-10.15 60.05-11.98 60.05-13.8 60.05-15.5 60.05-17.2 60.05-18.7L60.05-18.7Q60.05-20.45 59.37-21.25 58.7-22.05 57.2-22.05L57.2-22.05Q56.1-22.05 55-21.43 53.9-20.8 52.85-19.63 51.8-18.45 50.85-16.65L50.85-16.65 50.15-22.75 52.3-22.75Q53.25-24.3 54.27-25.28 55.3-26.25 56.55-26.75 57.8-27.25 59.3-27.25L59.3-27.25Q60.55-27.25 61.7-26.83 62.85-26.4 63.72-25.55 64.6-24.7 65.1-23.4 65.6-22.1 65.6-20.35L65.6-20.35Q65.6-18.9 65.6-17.15 65.6-15.4 65.6-13.4 65.6-11.4 65.6-9.28 65.6-7.15 65.6-5L65.6-5Q65.6-3.75 65.6-2.5 65.6-1.25 65.6 0ZM51.55 0L51.55 0Q50.95 0 49.95 0 48.95 0 48.02 0 47.1 0 46.5 0L46.5 0Q46.35 0 46.22-0.08 46.1-0.15 46.02-0.25 45.95-0.35 45.95-0.55L45.95-0.55Q45.95-2.5 45.95-4.45 45.95-6.4 45.95-8.28 45.95-10.15 45.95-11.98 45.95-13.8 45.95-15.53 45.95-17.25 45.95-18.85L45.95-18.85Q45.95-19.95 45.67-20.68 45.4-21.4 44.82-21.73 44.25-22.05 43.35-22.05L43.35-22.05Q42.3-22.05 41.17-21.43 40.05-20.8 38.95-19.6 37.85-18.4 36.75-16.55L36.75-16.55 35.95-22.75 38-22.75Q38.95-24.15 40.05-25.18 41.15-26.2 42.4-26.73 43.65-27.25 45.05-27.25L45.05-27.25Q46.5-27.25 47.67-26.83 48.85-26.4 49.72-25.58 50.6-24.75 51.07-23.5 51.55-22.25 51.55-20.6L51.55-20.6Q51.55-19.25 51.55-17.25 51.55-15.25 51.55-12.68 51.55-10.1 51.55-6.93 51.55-3.75 51.55 0ZM37.45 0L37.45 0Q36.95 0 36.27 0 35.6 0 34.92 0 34.25 0 33.6 0 32.95 0 32.45 0L32.45 0Q32.3 0 32.2-0.03 32.1-0.05 32.02-0.13 31.95-0.2 31.92-0.3 31.9-0.4 31.9-0.55L31.9-0.55Q31.9-4.1 31.9-7.6 31.9-11.1 31.9-14.65 31.9-18.2 31.9-21.7L31.9-21.7Q31.9-23.2 31.9-24.48 31.9-25.75 31.9-26.7L31.9-26.7Q32.3-26.7 32.85-26.7 33.4-26.7 34-26.7 34.6-26.7 35.15-26.7 35.7-26.7 36.15-26.7L36.15-26.7Q36.15-26.7 36.35-25.9 36.55-25.1 36.8-24.05 37.05-23 37.25-22.18 37.45-21.35 37.45-21.35L37.45-21.35Q37.45-18.3 37.45-14.8 37.45-11.3 37.45-7.58 37.45-3.85 37.45 0ZM74.4-26.7L74.4-26.7Q75.2-26.7 75.97-26.7 76.75-26.7 77.55-26.7 78.34-26.7 79.15-26.7L79.15-26.7Q79.34-26.7 79.45-26.63 79.55-26.55 79.62-26.45 79.7-26.35 79.7-26.15L79.7-26.15Q79.7-21.65 79.7-17.13 79.7-12.6 79.7-8.08 79.7-3.55 79.7 0.98 79.7 5.5 79.7 10L79.7 10Q78.9 10 78.09 10 77.3 10 76.52 10 75.75 10 74.95 10L74.95 10Q74.8 10 74.67 9.93 74.55 9.85 74.47 9.73 74.4 9.6 74.4 9.45L74.4 9.45Q74.4 5.55 74.4 1.68 74.4-2.2 74.4-6.1 74.4-10 74.4-13.9 74.4-17.8 74.4-21.65L74.4-21.65Q74.4-23 74.4-24.25 74.4-25.5 74.4-26.7ZM88.25-27.25L88.25-27.25Q90.8-27.25 92.72-26.1 94.65-24.95 95.72-22.75 96.8-20.55 96.8-17.5L96.8-17.5 96.8-9.45Q96.8-7.15 96.17-5.3 95.55-3.45 94.42-2.15 93.3-0.85 91.7-0.18 90.09 0.5 88.15 0.5L88.15 0.5Q86.59 0.5 85.17 0.03 83.75-0.45 82.57-1.35 81.4-2.25 80.45-3.5L80.45-3.5 79-3.5 79-8.5Q80.5-6.5 82.5-5.55 84.5-4.6 86.59-4.6L86.59-4.6Q88.15-4.6 89.22-5.25 90.3-5.9 90.9-7.2 91.5-8.5 91.5-10.3L91.5-10.3 91.5-16.65Q91.5-18.1 91.15-19.15 90.8-20.2 90.15-20.9L90.15-20.9Q89.5-21.5 88.62-21.83 87.75-22.15 86.59-22.15L86.59-22.15Q85.3-22.15 84-21.55 82.7-20.95 81.45-19.78 80.2-18.6 79.05-16.8L79.05-16.8 79.05-22.45 80.45-22.45Q81.34-24 82.52-25.05 83.7-26.1 85.15-26.68 86.59-27.25 88.25-27.25ZM114.99-27.25L114.99-27.25Q117.59-27.25 119.74-26.43 121.89-25.6 123.44-24.13 124.99-22.65 125.82-20.63 126.64-18.6 126.64-16.15L126.64-16.15 126.64-10.75Q126.64-7.4 125.14-4.85 123.64-2.3 120.99-0.88 118.34 0.55 114.99 0.55L114.99 0.55Q112.39 0.55 110.24-0.28 108.09-1.1 106.54-2.58 104.99-4.05 104.17-6.08 103.34-8.1 103.34-10.55L103.34-10.55 103.34-15.95Q103.34-19.3 104.84-21.85 106.34-24.4 108.99-25.83 111.64-27.25 114.99-27.25ZM115.19-22.4L115.19-22.4Q113.09-22.4 111.64-21.55 110.19-20.7 109.42-19.2 108.64-17.7 108.64-15.75L108.64-15.75 108.64-10.9Q108.64-9.35 109.12-8.1 109.59-6.85 110.44-5.95L110.44-5.95Q111.19-5.2 112.32-4.75 113.44-4.3 114.79-4.3L114.79-4.3Q116.89-4.3 118.37-5.18 119.84-6.05 120.59-7.55 121.34-9.05 121.34-10.95L121.34-10.95 121.34-15.8Q121.34-17.45 120.92-18.7 120.49-19.95 119.64-20.8L119.64-20.8Q118.84-21.6 117.72-22 116.59-22.4 115.19-22.4ZM146.69-26.7L146.69-26.7 151.69-26.7Q151.84-26.7 151.97-26.65 152.09-26.6 152.19-26.5 152.29-26.4 152.34-26.15L152.34-26.15Q153.04-23.25 153.74-20.5 154.44-17.75 155.06-15.1 155.69-12.45 156.24-9.83 156.79-7.2 157.19-4.5L157.19-4.5 158.14-4.5Q158.49-7.5 158.94-10.33 159.39-13.15 159.89-15.9 160.39-18.65 160.92-21.35 161.44-24.05 161.99-26.7L161.99-26.7Q162.79-26.7 163.64-26.7 164.49-26.7 165.34-26.7 166.19-26.7 166.94-26.7L166.94-26.7Q167.14-26.7 167.27-26.65 167.39-26.6 167.47-26.45 167.54-26.3 167.44-26L167.44-26Q166.74-23.15 166.02-19.95 165.29-16.75 164.49-13.38 163.69-10 162.92-6.6 162.14-3.2 161.39 0L161.39 0Q160.64 0 159.84 0 159.04 0 158.19 0 157.34 0 156.52 0 155.69 0 154.94 0L154.94 0Q154.64 0 154.47-0.23 154.29-0.45 154.09-1.15L154.09-1.15Q153.64-3.05 153.19-4.67 152.74-6.3 152.34-7.88 151.94-9.45 151.54-11.2 151.14-12.95 150.77-15.05 150.39-17.15 149.99-19.9L149.99-19.9 149.09-19.9Q148.69-17.65 148.39-15.85 148.09-14.05 147.77-12.55 147.44-11.05 147.12-9.68 146.79-8.3 146.42-6.85 146.04-5.4 145.59-3.73 145.14-2.05 144.59 0L144.59 0Q143.64 0 142.49 0 141.34 0 140.27 0 139.19 0 138.24 0L138.24 0Q137.94 0 137.77-0.25 137.59-0.5 137.39-1.25L137.39-1.25Q136.94-3.15 136.39-5.55 135.84-7.95 135.22-10.58 134.59-13.2 133.94-15.95 133.29-18.7 132.64-21.43 131.99-24.15 131.39-26.7L131.39-26.7Q132.19-26.7 133.02-26.7 133.84-26.7 134.69-26.7 135.54-26.7 136.34-26.7L136.34-26.7Q136.54-26.7 136.67-26.63 136.79-26.55 136.87-26.45 136.94-26.35 136.99-26.1L136.99-26.1Q137.44-23.8 137.99-21.15 138.54-18.5 139.12-15.7 139.69-12.9 140.17-10.05 140.64-7.2 140.94-4.5L140.94-4.5 141.94-4.5Q142.34-7.2 142.87-9.98 143.39-12.75 144.04-15.58 144.69-18.4 145.37-21.2 146.04-24 146.69-26.7ZM184.09-27.25L184.09-27.25Q187.24-27.25 189.71-25.98 192.19-24.7 193.64-22.23 195.09-19.75 195.09-16.05L195.09-16.05 195.09-12.2Q195.09-12.05 195.01-11.93 194.94-11.8 194.84-11.75 194.74-11.7 194.54-11.7L194.54-11.7 182.04-11.7Q181.24-11.7 180.39-11.7 179.54-11.7 178.69-11.7L178.69-11.7 176.99-11.7 176.54-15.25 189.89-15.25Q189.89-15.5 189.89-15.73 189.89-15.95 189.89-16.15L189.89-16.15Q189.89-17.95 189.51-19.25 189.14-20.55 188.29-21.3L188.29-21.3Q187.59-22.05 186.54-22.38 185.49-22.7 184.09-22.7L184.09-22.7Q181.14-22.7 179.56-21.15 177.99-19.6 177.99-16.05L177.99-16.05 177.99-10.55Q177.99-9.05 178.39-7.9 178.79-6.75 179.54-5.95L179.54-5.95Q180.49-5 181.99-4.55 183.49-4.1 185.54-4.1L185.54-4.1Q187.39-4.1 188.76-4.3 190.14-4.5 191.34-4.88 192.54-5.25 193.74-5.8L193.74-5.8 194.59-5.8Q194.59-4.85 194.59-3.85 194.59-2.85 194.59-1.85L194.59-1.85Q194.59-1.75 194.54-1.65 194.49-1.55 194.39-1.45L194.39-1.45Q193.94-1 192.59-0.53 191.24-0.05 189.36 0.25 187.49 0.55 185.34 0.55L185.34 0.55Q182.39 0.55 180.01-0.18 177.64-0.9 176.01-2.3 174.39-3.7 173.54-5.78 172.69-7.85 172.69-10.55L172.69-10.55 172.69-15.95Q172.69-18.7 173.54-20.83 174.39-22.95 175.94-24.38 177.49-25.8 179.59-26.53 181.69-27.25 184.09-27.25ZM208.09-15.15L208.09-21.55 209.79-21.55Q210.74-23.6 211.86-24.83 212.99-26.05 214.41-26.63 215.84-27.2 217.54-27.2L217.54-27.2Q218.44-27.2 219.04-27.08 219.64-26.95 219.99-26.75L219.99-26.75Q220.24-26.6 220.31-26.45 220.39-26.3 220.39-26.05L220.39-26.05Q220.39-25.45 220.39-24.85 220.39-24.25 220.39-23.68 220.39-23.1 220.39-22.53 220.39-21.95 220.39-21.35L220.39-21.35 219.54-21.35Q218.84-21.55 218.19-21.65 217.54-21.75 216.69-21.75L216.69-21.75Q214.94-21.75 213.46-21.1 211.99-20.45 210.66-19.03 209.34-17.6 208.09-15.15L208.09-15.15ZM208.94 0L208.94 0Q208.14 0 207.29 0 206.44 0 205.61 0 204.79 0 203.94 0L203.94 0Q203.79 0 203.69-0.03 203.59-0.05 203.51-0.13 203.44-0.2 203.41-0.3 203.39-0.4 203.39-0.55L203.39-0.55Q203.39-1.85 203.39-3.75 203.39-5.65 203.39-7.9 203.39-10.15 203.39-12.55 203.39-14.95 203.39-17.3 203.39-19.65 203.39-21.75L203.39-21.75Q203.39-23.3 203.39-24.58 203.39-25.85 203.39-26.7L203.39-26.7Q204.29-26.7 205.16-26.7 206.04-26.7 206.84-26.7 207.64-26.7 208.39-26.7L208.39-26.7Q208.59-26.7 208.69-26.63 208.79-26.55 208.86-26.45 208.94-26.35 208.94-26.15L208.94-26.15Q208.94-24.5 208.94-22.2 208.94-19.9 208.94-17.15 208.94-14.4 208.94-11.43 208.94-8.45 208.94-5.53 208.94-2.6 208.94 0ZM228.28-0.55L228.28-0.55Q228.28-2.25 228.28-4.38 228.28-6.5 228.28-8.85 228.28-11.2 228.28-13.55 228.28-15.9 228.28-18.05 228.28-20.2 228.28-21.9L228.28-21.9 227.73-21.9Q227.33-21.9 226.88-21.9 226.43-21.9 225.93-21.9 225.43-21.9 224.93-21.9 224.43-21.9 223.98-21.9L223.98-21.9Q223.73-21.9 223.58-22.05 223.43-22.2 223.43-22.45L223.43-22.45Q223.43-23.5 223.43-24.58 223.43-25.65 223.43-26.7L223.43-26.7Q224.23-26.7 225.26-26.7 226.28-26.7 227.36-26.7 228.43-26.7 229.46-26.7 230.48-26.7 231.41-26.7 232.33-26.7 233.03-26.7L233.03-26.7Q233.23-26.7 233.33-26.63 233.43-26.55 233.51-26.43 233.58-26.3 233.58-26.15L233.58-26.15Q233.58-23.65 233.58-20.93 233.58-18.2 233.58-15.4 233.58-12.6 233.58-9.9 233.58-7.2 233.58-4.7L233.58-4.7Q233.58-3.95 233.58-3.15 233.58-2.35 233.58-1.58 233.58-0.8 233.58 0L233.58 0Q232.33 0 231.23 0 230.13 0 228.83 0L228.83 0Q228.63 0 228.46-0.15 228.28-0.3 228.28-0.55ZM227.43-33.65L227.43-39.1Q228.23-39.1 229.06-39.1 229.88-39.1 230.71-39.1 231.53-39.1 232.36-39.1 233.18-39.1 233.98-39.1L233.98-39.1Q234.23-39.1 234.38-38.95 234.53-38.8 234.53-38.55L234.53-38.55 234.53-33.1Q233.73-33.1 232.91-33.1 232.08-33.1 231.26-33.1 230.43-33.1 229.61-33.1 228.78-33.1 227.98-33.1L227.98-33.1Q227.73-33.1 227.58-33.25 227.43-33.4 227.43-33.65L227.43-33.65ZM264.98 0L264.98 0Q263.73 0 262.63 0 261.53 0 260.23 0L260.23 0Q260.08 0 259.96-0.08 259.83-0.15 259.75-0.25 259.68-0.35 259.68-0.55L259.68-0.55Q259.68-3.55 259.68-6.58 259.68-9.6 259.68-12.6 259.68-15.6 259.68-18.6L259.68-18.6Q259.68-20.4 258.83-21.28 257.98-22.15 256.33-22.15L256.33-22.15Q255.38-22.15 254.31-21.85 253.23-21.55 252.16-20.93 251.08-20.3 250.01-19.38 248.93-18.45 247.88-17.15L247.88-17.15 247.88-22.3 249.48-22.3Q250.58-23.8 251.88-24.9 253.18-26 254.71-26.63 256.23-27.25 257.98-27.25L257.98-27.25Q259.63-27.25 260.93-26.73 262.23-26.2 263.13-25.18 264.03-24.15 264.5-22.75 264.98-21.35 264.98-19.7L264.98-19.7Q264.98-17.3 264.98-14.85 264.98-12.4 264.98-9.98 264.98-7.55 264.98-5.1L264.98-5.1Q264.98-3.8 264.98-2.53 264.98-1.25 264.98 0ZM248.68 0L248.68 0Q247.83 0 247.08 0 246.33 0 245.53 0 244.73 0 243.93 0L243.93 0Q243.78 0 243.68-0.03 243.58-0.05 243.51-0.13 243.43-0.2 243.41-0.3 243.38-0.4 243.38-0.55L243.38-0.55Q243.38-3.2 243.38-5.88 243.38-8.55 243.38-11.18 243.38-13.8 243.38-16.45 243.38-19.1 243.38-21.75L243.38-21.75Q243.38-23.3 243.38-24.58 243.38-25.85 243.38-26.7L243.38-26.7Q244.28-26.7 245.08-26.7 245.88-26.7 246.63-26.7 247.38-26.7 248.13-26.7L248.13-26.7Q248.33-26.7 248.43-26.63 248.53-26.55 248.61-26.45 248.68-26.35 248.68-26.15L248.68-26.15Q248.68-21.8 248.68-17.45 248.68-13.1 248.68-8.72 248.68-4.35 248.68 0ZM274.43-4.1L274.43-4.1Q274.43-5.2 274.78-6.1 275.13-7 275.9-7.68 276.68-8.35 277.83-8.8L277.83-8.8 277.83-10.15 280.68-9.1Q280.18-8.3 279.95-7.43 279.73-6.55 279.73-5.55L279.73-5.55Q279.73-4.75 280.13-4.4 280.53-4.05 281.28-4.05L281.28-4.05 288.33-4.05Q291.18-4.05 293.03-3.1 294.88-2.15 295.78-0.43 296.68 1.3 296.68 3.5L296.68 3.5 296.68 5.1Q296.68 6.7 296.13 8.05 295.58 9.4 294.48 10.4 293.38 11.4 291.75 11.95 290.13 12.5 288.03 12.5L288.03 12.5 278.33 12.5Q275.73 12.5 274 11.75 272.28 11 271.4 9.65 270.53 8.3 270.53 6.45L270.53 6.45 270.53 5.55Q270.53 4.05 271.15 2.85 271.78 1.65 272.93 0.85 274.08 0.05 275.63-0.2L275.63-0.2 275.63-1.9 279.03 0.25Q277.78 0.5 277.1 1.07 276.43 1.65 276.1 2.45 275.78 3.25 275.78 4.15L275.78 4.15 275.78 5.45Q275.78 6.4 276.15 7.08 276.53 7.75 277.33 8.13 278.13 8.5 279.43 8.5L279.43 8.5 287.83 8.5Q288.78 8.5 289.48 8.2 290.18 7.9 290.58 7.5L290.58 7.5Q291.03 7.05 291.23 6.43 291.43 5.8 291.43 5.05L291.43 5.05 291.43 3.8Q291.43 2.25 290.63 1.4 289.83 0.55 287.83 0.55L287.83 0.55 279.08 0.55Q277.83 0.55 276.78-0.05 275.73-0.65 275.08-1.7 274.43-2.75 274.43-4.1ZM286.03-22.8L286.03-22.8 290.38-23.05 290.38-21.9Q292.13-21.2 292.88-19.98 293.63-18.75 293.63-17.1L293.63-17.1 293.63-16.15Q293.63-13.85 292.4-12.2 291.18-10.55 288.75-9.63 286.33-8.7 282.83-8.7L282.83-8.7Q279.33-8.7 276.85-9.73 274.38-10.75 273.08-12.65 271.78-14.55 271.78-17.15L271.78-17.15 271.78-18.35Q271.78-21.05 273.08-23 274.38-24.95 276.85-26.03 279.33-27.1 282.83-27.1L282.83-27.1Q286.23-27.1 289.63-27.1 293.03-27.1 296.43-27.1L296.43-27.1Q296.43-26.1 296.43-25.1 296.43-24.1 296.43-23.1L296.43-23.1Q296.43-22.9 296.28-22.73 296.13-22.55 295.88-22.55L295.88-22.55Q293.73-22.55 291.63-22.55 289.53-22.55 287.38-22.55 285.23-22.55 282.83-22.55L282.83-22.55Q280.03-22.55 278.48-21.45 276.93-20.35 276.93-18.15L276.93-18.15 276.93-17.15Q276.93-16.25 277.2-15.6 277.48-14.95 278.03-14.4L278.03-14.4Q278.78-13.7 279.98-13.3 281.18-12.9 282.83-12.9L282.83-12.9Q285.63-12.9 287.08-14.03 288.53-15.15 288.53-17.25L288.53-17.25 288.53-18.4Q288.53-19.3 288.28-20.05 288.03-20.8 287.5-21.48 286.98-22.15 286.03-22.8ZM315.67-35L315.67-35Q316.47-35 317.35-35 318.22-35 319.12-35 320.02-35 320.77-35L320.77-35Q320.97-35 321.1-34.93 321.22-34.85 321.32-34.7 321.42-34.55 321.42-34.3L321.42-34.3Q321.87-32.2 322.37-29.78 322.87-27.35 323.42-24.58 323.97-21.8 324.57-18.7 325.17-15.6 325.75-12.2 326.32-8.8 326.87-5.1L326.87-5.1 325.62-5.8 328.72-5.8 327.57-5.15Q328.27-8.2 329-11.35 329.72-14.5 330.5-17.7 331.27-20.9 332.07-24.15 332.87-27.4 333.67-30.7L333.67-30.7 338.82-30.7Q339.07-30.7 339.22-30.58 339.37-30.45 339.42-30.15L339.42-30.15Q340.12-27.55 340.77-24.95 341.42-22.35 342.07-19.85 342.72-17.35 343.35-14.88 343.97-12.4 344.55-9.95 345.12-7.5 345.57-5.1L345.57-5.1 344.42-5.8 347.37-5.8 346.37-5.3Q346.92-9.15 347.45-12.4 347.97-15.65 348.45-18.48 348.92-21.3 349.45-23.95 349.97-26.6 350.5-29.3 351.02-32 351.62-35L351.62-35Q352.42-35 353.3-35 354.17-35 355.07-35 355.97-35 356.72-35L356.72-35Q356.97-35 357.1-34.93 357.22-34.85 357.27-34.68 357.32-34.5 357.27-34.25L357.27-34.25Q356.92-32.6 356.42-30.25 355.92-27.9 355.32-25.03 354.72-22.15 354.07-18.95 353.42-15.75 352.72-12.45 352.02-9.15 351.37-5.95 350.72-2.75 350.17 0.15L350.17 0.15Q349.47 0.15 348.5 0.15 347.52 0.15 346.5 0.15 345.47 0.15 344.57 0.15 343.67 0.15 343.07 0.15L343.07 0.15Q342.67 0.15 342.5-0.05 342.32-0.25 342.17-0.75L342.17-0.75Q341.47-3.4 340.82-5.88 340.17-8.35 339.52-11.05 338.87-13.75 338.15-17 337.42-20.25 336.57-24.5L336.57-24.5 338.27-22.6 334.97-22.6 336.42-24.5Q335.72-21.1 335.07-18.05 334.42-15 333.77-12.28 333.12-9.55 332.57-7.28 332.02-5 331.52-3.13 331.02-1.25 330.67 0.15L330.67 0.15Q329.67 0.15 328.35 0.15 327.02 0.15 325.72 0.15 324.42 0.15 323.57 0.15L323.57 0.15Q323.17 0.15 322.97-0.05 322.77-0.25 322.67-0.75L322.67-0.75Q322.17-3.15 321.6-5.93 321.02-8.7 320.42-11.68 319.82-14.65 319.2-17.75 318.57-20.85 317.95-24 317.32-27.15 316.72-30.15L316.72-30.15Q316.52-31.15 316.25-32.48 315.97-33.8 315.67-35ZM368.07-15.15L368.07-21.55 369.77-21.55Q370.72-23.6 371.85-24.83 372.97-26.05 374.4-26.63 375.82-27.2 377.52-27.2L377.52-27.2Q378.42-27.2 379.02-27.08 379.62-26.95 379.97-26.75L379.97-26.75Q380.22-26.6 380.3-26.45 380.37-26.3 380.37-26.05L380.37-26.05Q380.37-25.45 380.37-24.85 380.37-24.25 380.37-23.68 380.37-23.1 380.37-22.53 380.37-21.95 380.37-21.35L380.37-21.35 379.52-21.35Q378.82-21.55 378.17-21.65 377.52-21.75 376.67-21.75L376.67-21.75Q374.92-21.75 373.45-21.1 371.97-20.45 370.65-19.03 369.32-17.6 368.07-15.15L368.07-15.15ZM368.92 0L368.92 0Q368.12 0 367.27 0 366.42 0 365.6 0 364.77 0 363.92 0L363.92 0Q363.77 0 363.67-0.03 363.57-0.05 363.5-0.13 363.42-0.2 363.4-0.3 363.37-0.4 363.37-0.55L363.37-0.55Q363.37-1.85 363.37-3.75 363.37-5.65 363.37-7.9 363.37-10.15 363.37-12.55 363.37-14.95 363.37-17.3 363.37-19.65 363.37-21.75L363.37-21.75Q363.37-23.3 363.37-24.58 363.37-25.85 363.37-26.7L363.37-26.7Q364.27-26.7 365.15-26.7 366.02-26.7 366.82-26.7 367.62-26.7 368.37-26.7L368.37-26.7Q368.57-26.7 368.67-26.63 368.77-26.55 368.85-26.45 368.92-26.35 368.92-26.15L368.92-26.15Q368.92-24.5 368.92-22.2 368.92-19.9 368.92-17.15 368.92-14.4 368.92-11.43 368.92-8.45 368.92-5.53 368.92-2.6 368.92 0ZM388.27-0.55L388.27-0.55Q388.27-2.25 388.27-4.38 388.27-6.5 388.27-8.85 388.27-11.2 388.27-13.55 388.27-15.9 388.27-18.05 388.27-20.2 388.27-21.9L388.27-21.9 387.72-21.9Q387.32-21.9 386.87-21.9 386.42-21.9 385.92-21.9 385.42-21.9 384.92-21.9 384.42-21.9 383.97-21.9L383.97-21.9Q383.72-21.9 383.57-22.05 383.42-22.2 383.42-22.45L383.42-22.45Q383.42-23.5 383.42-24.58 383.42-25.65 383.42-26.7L383.42-26.7Q384.22-26.7 385.24-26.7 386.27-26.7 387.34-26.7 388.42-26.7 389.44-26.7 390.47-26.7 391.39-26.7 392.32-26.7 393.02-26.7L393.02-26.7Q393.22-26.7 393.32-26.63 393.42-26.55 393.49-26.43 393.57-26.3 393.57-26.15L393.57-26.15Q393.57-23.65 393.57-20.93 393.57-18.2 393.57-15.4 393.57-12.6 393.57-9.9 393.57-7.2 393.57-4.7L393.57-4.7Q393.57-3.95 393.57-3.15 393.57-2.35 393.57-1.58 393.57-0.8 393.57 0L393.57 0Q392.32 0 391.22 0 390.12 0 388.82 0L388.82 0Q388.62 0 388.44-0.15 388.27-0.3 388.27-0.55ZM387.42-33.65L387.42-39.1Q388.22-39.1 389.04-39.1 389.87-39.1 390.69-39.1 391.52-39.1 392.34-39.1 393.17-39.1 393.97-39.1L393.97-39.1Q394.22-39.1 394.37-38.95 394.52-38.8 394.52-38.55L394.52-38.55 394.52-33.1Q393.72-33.1 392.89-33.1 392.07-33.1 391.24-33.1 390.42-33.1 389.59-33.1 388.77-33.1 387.97-33.1L387.97-33.1Q387.72-33.1 387.57-33.25 387.42-33.4 387.42-33.65L387.42-33.65ZM401.17-26.7L401.17-26.7 420.17-26.7Q420.47-26.7 420.62-26.55 420.77-26.4 420.77-26.15L420.77-26.15Q420.77-25.35 420.77-24.65 420.77-23.95 420.77-23.25 420.77-22.55 420.77-21.75L420.77-21.75 401.77-21.75Q401.67-21.75 401.54-21.8 401.42-21.85 401.34-21.93 401.27-22 401.22-22.1 401.17-22.2 401.17-22.3L401.17-22.3Q401.17-23.1 401.17-23.8 401.17-24.5 401.17-25.2 401.17-25.9 401.17-26.7ZM420.12-5.05L420.77-5.05Q420.77-3.9 420.77-2.78 420.77-1.65 420.77-0.55L420.77-0.55Q420.77-0.3 420.62-0.15 420.47 0 420.22 0L420.22 0Q419.72 0 419.24 0 418.77 0 418.27 0 417.77 0 417.29 0 416.82 0 416.32 0L416.32 0Q413.82 0 411.89-0.6 409.97-1.2 408.64-2.45 407.32-3.7 406.62-5.65 405.92-7.6 405.92-10.3L405.92-10.3Q405.92-12.75 405.92-15.2 405.92-17.65 405.92-20.08 405.92-22.5 405.92-24.95 405.92-27.4 405.92-29.85L405.92-29.85Q405.92-31.15 405.92-32.43 405.92-33.7 405.92-35L405.92-35Q407.12-35 408.32-35 409.52-35 410.67-35L410.67-35Q410.82-35 410.94-34.93 411.07-34.85 411.14-34.73 411.22-34.6 411.22-34.45L411.22-34.45Q411.22-31.5 411.22-28.55 411.22-25.6 411.22-22.63 411.22-19.65 411.22-16.7 411.22-13.75 411.22-10.8L411.22-10.8Q411.22-9.1 411.57-7.98 411.92-6.85 412.62-6.15L412.62-6.15Q413.27-5.55 414.22-5.3 415.17-5.05 416.52-5.05L416.52-5.05Q417.12-5.05 417.72-5.05 418.32-5.05 418.92-5.05 419.52-5.05 420.12-5.05L420.12-5.05ZM439.06-27.25L439.06-27.25Q442.21-27.25 444.69-25.98 447.16-24.7 448.61-22.23 450.06-19.75 450.06-16.05L450.06-16.05 450.06-12.2Q450.06-12.05 449.99-11.93 449.91-11.8 449.81-11.75 449.71-11.7 449.51-11.7L449.51-11.7 437.01-11.7Q436.21-11.7 435.36-11.7 434.51-11.7 433.66-11.7L433.66-11.7 431.96-11.7 431.51-15.25 444.86-15.25Q444.86-15.5 444.86-15.73 444.86-15.95 444.86-16.15L444.86-16.15Q444.86-17.95 444.49-19.25 444.11-20.55 443.26-21.3L443.26-21.3Q442.56-22.05 441.51-22.38 440.46-22.7 439.06-22.7L439.06-22.7Q436.11-22.7 434.54-21.15 432.96-19.6 432.96-16.05L432.96-16.05 432.96-10.55Q432.96-9.05 433.36-7.9 433.76-6.75 434.51-5.95L434.51-5.95Q435.46-5 436.96-4.55 438.46-4.1 440.51-4.1L440.51-4.1Q442.36-4.1 443.74-4.3 445.11-4.5 446.31-4.88 447.51-5.25 448.71-5.8L448.71-5.8 449.56-5.8Q449.56-4.85 449.56-3.85 449.56-2.85 449.56-1.85L449.56-1.85Q449.56-1.75 449.51-1.65 449.46-1.55 449.36-1.45L449.36-1.45Q448.91-1 447.56-0.53 446.21-0.05 444.34 0.25 442.46 0.55 440.31 0.55L440.31 0.55Q437.36 0.55 434.99-0.18 432.61-0.9 430.99-2.3 429.36-3.7 428.51-5.78 427.66-7.85 427.66-10.55L427.66-10.55 427.66-15.95Q427.66-18.7 428.51-20.83 429.36-22.95 430.91-24.38 432.46-25.8 434.56-26.53 436.66-27.25 439.06-27.25ZM463.06-15.15L463.06-21.55 464.76-21.55Q465.71-23.6 466.84-24.83 467.96-26.05 469.39-26.63 470.81-27.2 472.51-27.2L472.51-27.2Q473.41-27.2 474.01-27.08 474.61-26.95 474.96-26.75L474.96-26.75Q475.21-26.6 475.29-26.45 475.36-26.3 475.36-26.05L475.36-26.05Q475.36-25.45 475.36-24.85 475.36-24.25 475.36-23.68 475.36-23.1 475.36-22.53 475.36-21.95 475.36-21.35L475.36-21.35 474.51-21.35Q473.81-21.55 473.16-21.65 472.51-21.75 471.66-21.75L471.66-21.75Q469.91-21.75 468.44-21.1 466.96-20.45 465.64-19.03 464.31-17.6 463.06-15.15L463.06-15.15ZM463.91 0L463.91 0Q463.11 0 462.26 0 461.41 0 460.59 0 459.76 0 458.91 0L458.91 0Q458.76 0 458.66-0.03 458.56-0.05 458.49-0.13 458.41-0.2 458.39-0.3 458.36-0.4 458.36-0.55L458.36-0.55Q458.36-1.85 458.36-3.75 458.36-5.65 458.36-7.9 458.36-10.15 458.36-12.55 458.36-14.95 458.36-17.3 458.36-19.65 458.36-21.75L458.36-21.75Q458.36-23.3 458.36-24.58 458.36-25.85 458.36-26.7L458.36-26.7Q459.26-26.7 460.14-26.7 461.01-26.7 461.81-26.7 462.61-26.7 463.36-26.7L463.36-26.7Q463.56-26.7 463.66-26.63 463.76-26.55 463.84-26.45 463.91-26.35 463.91-26.15L463.91-26.15Q463.91-24.5 463.91-22.2 463.91-19.9 463.91-17.15 463.91-14.4 463.91-11.43 463.91-8.45 463.91-5.53 463.91-2.6 463.91 0ZM489.31-4.65L489.31-4.65Q492.71-4.65 494.11-5.58 495.51-6.5 495.51-7.9L495.51-7.9Q495.51-8.7 495.16-9.3 494.81-9.9 493.96-10.33 493.11-10.75 491.66-11L491.66-11 486.66-11.9Q484.21-12.4 482.63-13.33 481.06-14.25 480.31-15.65 479.56-17.05 479.56-18.9L479.56-18.9Q479.56-20.7 480.33-22.23 481.11-23.75 482.61-24.85 484.11-25.95 486.31-26.55 488.51-27.15 491.41-27.15L491.41-27.15Q493.16-27.15 494.56-27 495.96-26.85 497.01-26.63 498.06-26.4 498.76-26.15L498.76-26.15Q499.11-26.05 499.23-25.93 499.36-25.8 499.38-25.63 499.41-25.45 499.41-25.15L499.41-25.15Q499.41-24.3 499.41-23.1 499.41-21.9 499.41-20.85L499.41-20.85 498.61-20.85Q497.31-21.3 496.13-21.58 494.96-21.85 493.68-21.95 492.41-22.05 490.81-22.05L490.81-22.05Q488.76-22.05 487.43-21.63 486.11-21.2 485.48-20.53 484.86-19.85 484.86-19.05L484.86-19.05Q484.86-18.3 485.18-17.78 485.51-17.25 486.33-16.9 487.16-16.55 488.66-16.25L488.66-16.25 493.56-15.3Q495.81-14.95 497.41-13.98 499.01-13 499.88-11.5 500.76-10 500.76-7.95L500.76-7.95Q500.76-5.4 499.41-3.5 498.06-1.6 495.51-0.58 492.96 0.45 489.36 0.45L489.36 0.45Q487.56 0.45 486.01 0.3 484.46 0.15 483.18-0.13 481.91-0.4 480.91-0.78 479.91-1.15 479.16-1.55L479.16-1.55Q478.96-1.7 478.88-1.8 478.81-1.9 478.81-2.25L478.81-2.25Q478.81-3.2 478.81-4.45 478.81-5.7 478.81-6.85L478.81-6.85 479.61-6.85Q480.71-6.25 481.78-5.83 482.86-5.4 484.01-5.15 485.16-4.9 486.48-4.78 487.81-4.65 489.31-4.65ZM509.51 9.9L509.51 9.9Q508.51 9.9 507.18 9.9 505.86 9.9 504.86 9.9L504.86 9.9Q505.31 7.75 505.68 5.6 506.06 3.45 506.48 1.33 506.91-0.8 507.31-2.95 507.71-5.1 508.16-7.25L508.16-7.25Q509.26-7.25 510.23-7.25 511.21-7.25 512.25-7.25 513.31-7.25 514.5-7.25L514.5-7.25Q514.71-7.25 514.83-7.18 514.96-7.1 514.98-6.95 515-6.8 514.91-6.55L514.91-6.55Q514.41-4.85 513.81-2.85 513.21-0.85 512.56 1.23 511.91 3.3 511.26 5.4 510.61 7.5 510.01 9.5L510.01 9.5Q509.96 9.75 509.83 9.83 509.71 9.9 509.51 9.9ZM535.75-35L535.75-35 558.7-35Q558.85-35 558.95-34.93 559.05-34.85 559.15-34.73 559.25-34.6 559.25-34.45L559.25-34.45Q559.25-33.25 559.25-32.33 559.25-31.4 559.25-30.2L559.25-30.2 536.3-30.2Q536.15-30.2 536.02-30.28 535.9-30.35 535.82-30.48 535.75-30.6 535.75-30.75L535.75-30.75Q535.75-31.9 535.75-32.88 535.75-33.85 535.75-35ZM541.8-15.35L541.8-20 555.9-20Q556.05-20 556.17-19.93 556.3-19.85 556.37-19.75 556.45-19.65 556.45-19.45L556.45-19.45Q556.45-18.7 556.45-18 556.45-17.3 556.45-16.68 556.45-16.05 556.45-15.35L556.45-15.35 541.8-15.35ZM559.25 0L539.1 0Q539 0 538.9-0.05 538.8-0.1 538.72-0.18 538.65-0.25 538.6-0.35 538.55-0.45 538.55-0.55L538.55-0.55Q538.55-2.6 538.55-5.45 538.55-8.3 538.55-11.65 538.55-15 538.55-18.57 538.55-22.15 538.55-25.7 538.55-29.25 538.55-32.4L538.55-32.4 544.45-32.4 544.1-31.5Q544.1-30.45 544.1-29.3 544.1-28.15 544.1-27L544.1-27Q544.1-24.45 544.1-21.68 544.1-18.9 544.1-16.05 544.1-13.2 544.1-10.35 544.1-7.5 544.1-4.8L544.1-4.8 558.7-4.8Q558.95-4.8 559.1-4.65 559.25-4.5 559.25-4.25L559.25-4.25Q559.25-3.15 559.25-2.13 559.25-1.1 559.25 0L559.25 0ZM587.95 0L587.95 0Q586.7 0 585.6 0 584.5 0 583.2 0L583.2 0Q583.05 0 582.92-0.08 582.8-0.15 582.72-0.25 582.65-0.35 582.65-0.55L582.65-0.55Q582.65-3.55 582.65-6.58 582.65-9.6 582.65-12.6 582.65-15.6 582.65-18.6L582.65-18.6Q582.65-20.4 581.8-21.28 580.95-22.15 579.3-22.15L579.3-22.15Q578.35-22.15 577.27-21.85 576.2-21.55 575.12-20.93 574.05-20.3 572.97-19.38 571.9-18.45 570.85-17.15L570.85-17.15 570.85-22.3 572.45-22.3Q573.55-23.8 574.85-24.9 576.15-26 577.67-26.63 579.2-27.25 580.95-27.25L580.95-27.25Q582.6-27.25 583.9-26.73 585.2-26.2 586.1-25.18 587-24.15 587.47-22.75 587.95-21.35 587.95-19.7L587.95-19.7Q587.95-17.3 587.95-14.85 587.95-12.4 587.95-9.98 587.95-7.55 587.95-5.1L587.95-5.1Q587.95-3.8 587.95-2.53 587.95-1.25 587.95 0ZM571.65 0L571.65 0Q570.8 0 570.05 0 569.3 0 568.5 0 567.7 0 566.9 0L566.9 0Q566.75 0 566.65-0.03 566.55-0.05 566.47-0.13 566.4-0.2 566.37-0.3 566.35-0.4 566.35-0.55L566.35-0.55Q566.35-3.2 566.35-5.88 566.35-8.55 566.35-11.18 566.35-13.8 566.35-16.45 566.35-19.1 566.35-21.75L566.35-21.75Q566.35-23.3 566.35-24.58 566.35-25.85 566.35-26.7L566.35-26.7Q567.25-26.7 568.05-26.7 568.85-26.7 569.6-26.7 570.35-26.7 571.1-26.7L571.1-26.7Q571.3-26.7 571.4-26.63 571.5-26.55 571.57-26.45 571.65-26.35 571.65-26.15L571.65-26.15Q571.65-21.8 571.65-17.45 571.65-13.1 571.65-8.72 571.65-4.35 571.65 0ZM601.04-15.15L601.04-21.55 602.74-21.55Q603.69-23.6 604.82-24.83 605.94-26.05 607.37-26.63 608.79-27.2 610.49-27.2L610.49-27.2Q611.39-27.2 611.99-27.08 612.59-26.95 612.94-26.75L612.94-26.75Q613.19-26.6 613.27-26.45 613.34-26.3 613.34-26.05L613.34-26.05Q613.34-25.45 613.34-24.85 613.34-24.25 613.34-23.68 613.34-23.1 613.34-22.53 613.34-21.95 613.34-21.35L613.34-21.35 612.49-21.35Q611.79-21.55 611.14-21.65 610.49-21.75 609.64-21.75L609.64-21.75Q607.89-21.75 606.42-21.1 604.94-20.45 603.62-19.03 602.29-17.6 601.04-15.15L601.04-15.15ZM601.89 0L601.89 0Q601.09 0 600.24 0 599.39 0 598.57 0 597.74 0 596.89 0L596.89 0Q596.74 0 596.64-0.03 596.54-0.05 596.47-0.13 596.39-0.2 596.37-0.3 596.34-0.4 596.34-0.55L596.34-0.55Q596.34-1.85 596.34-3.75 596.34-5.65 596.34-7.9 596.34-10.15 596.34-12.55 596.34-14.95 596.34-17.3 596.34-19.65 596.34-21.75L596.34-21.75Q596.34-23.3 596.34-24.58 596.34-25.85 596.34-26.7L596.34-26.7Q597.24-26.7 598.12-26.7 598.99-26.7 599.79-26.7 600.59-26.7 601.34-26.7L601.34-26.7Q601.54-26.7 601.64-26.63 601.74-26.55 601.82-26.45 601.89-26.35 601.89-26.15L601.89-26.15Q601.89-24.5 601.89-22.2 601.89-19.9 601.89-17.15 601.89-14.4 601.89-11.43 601.89-8.45 601.89-5.53 601.89-2.6 601.89 0ZM621.24-0.55L621.24-0.55Q621.24-2.25 621.24-4.38 621.24-6.5 621.24-8.85 621.24-11.2 621.24-13.55 621.24-15.9 621.24-18.05 621.24-20.2 621.24-21.9L621.24-21.9 620.69-21.9Q620.29-21.9 619.84-21.9 619.39-21.9 618.89-21.9 618.39-21.9 617.89-21.9 617.39-21.9 616.94-21.9L616.94-21.9Q616.69-21.9 616.54-22.05 616.39-22.2 616.39-22.45L616.39-22.45Q616.39-23.5 616.39-24.58 616.39-25.65 616.39-26.7L616.39-26.7Q617.19-26.7 618.22-26.7 619.24-26.7 620.32-26.7 621.39-26.7 622.42-26.7 623.44-26.7 624.37-26.7 625.29-26.7 625.99-26.7L625.99-26.7Q626.19-26.7 626.29-26.63 626.39-26.55 626.47-26.43 626.54-26.3 626.54-26.15L626.54-26.15Q626.54-23.65 626.54-20.93 626.54-18.2 626.54-15.4 626.54-12.6 626.54-9.9 626.54-7.2 626.54-4.7L626.54-4.7Q626.54-3.95 626.54-3.15 626.54-2.35 626.54-1.58 626.54-0.8 626.54 0L626.54 0Q625.29 0 624.19 0 623.09 0 621.79 0L621.79 0Q621.59 0 621.42-0.15 621.24-0.3 621.24-0.55ZM620.39-33.65L620.39-39.1Q621.19-39.1 622.02-39.1 622.84-39.1 623.67-39.1 624.49-39.1 625.32-39.1 626.14-39.1 626.94-39.1L626.94-39.1Q627.19-39.1 627.34-38.95 627.49-38.8 627.49-38.55L627.49-38.55 627.49-33.1Q626.69-33.1 625.87-33.1 625.04-33.1 624.22-33.1 623.39-33.1 622.57-33.1 621.74-33.1 620.94-33.1L620.94-33.1Q620.69-33.1 620.54-33.25 620.39-33.4 620.39-33.65L620.39-33.65ZM647.29-27.25L647.29-27.25Q649.19-27.25 650.61-26.98 652.04-26.7 652.91-26.33 653.79-25.95 654.09-25.65L654.09-25.65Q654.24-25.5 654.26-25.4 654.29-25.3 654.29-25.1L654.29-25.1Q654.29-24.05 654.29-22.95 654.29-21.85 654.29-20.75L654.29-20.75 653.44-20.75Q652.24-21.4 650.74-21.83 649.24-22.25 647.24-22.25L647.24-22.25Q645.19-22.25 643.69-21.48 642.19-20.7 641.39-19.1 640.59-17.5 640.59-15.1L640.59-15.1 640.59-11.3Q640.59-9.55 641.04-8.25 641.49-6.95 642.39-6.1L642.39-6.1Q643.24-5.25 644.46-4.85 645.69-4.45 647.24-4.45L647.24-4.45Q648.64-4.45 649.71-4.63 650.79-4.8 651.71-5.1 652.64-5.4 653.44-5.8L653.44-5.8 654.29-5.8Q654.29-4.7 654.29-3.6 654.29-2.5 654.29-1.4L654.29-1.4Q654.29-1.3 654.26-1.2 654.24-1.1 654.14-1L654.14-1Q653.84-0.7 652.96-0.33 652.09 0.05 650.66 0.3 649.24 0.55 647.29 0.55L647.29 0.55Q644.39 0.55 642.14-0.2 639.89-0.95 638.31-2.45 636.74-3.95 635.94-6.13 635.14-8.3 635.14-11.05L635.14-11.05 635.14-15.25Q635.14-19 636.71-21.68 638.29-24.35 641.01-25.8 643.74-27.25 647.29-27.25ZM661.89 0L661.89 0Q661.74 0 661.61-0.08 661.49-0.15 661.41-0.25 661.34-0.35 661.34-0.55L661.34-0.55Q661.34-4.55 661.34-8.55 661.34-12.55 661.34-16.57 661.34-20.6 661.34-24.6 661.34-28.6 661.34-32.55L661.34-32.55Q661.34-34.1 661.34-35.38 661.34-36.65 661.34-37.5L661.34-37.5Q662.24-37.5 663.04-37.5 663.84-37.5 664.59-37.5 665.34-37.5 666.09-37.5L666.09-37.5Q666.29-37.5 666.39-37.43 666.49-37.35 666.56-37.25 666.64-37.15 666.64-36.95L666.64-36.95Q666.64-32.35 666.64-27.73 666.64-23.1 666.64-18.48 666.64-13.85 666.64-9.22 666.64-4.6 666.64 0L666.64 0Q665.79 0 665.04 0 664.29 0 663.51 0 662.74 0 661.89 0ZM665.84-17.15L665.84-17.15 665.84-22.3 667.44-22.3Q668.29-23.4 669.21-24.33 670.14-25.25 671.19-25.9 672.24-26.55 673.41-26.9 674.59-27.25 675.94-27.25L675.94-27.25Q677.59-27.25 678.89-26.73 680.19-26.2 681.09-25.18 681.99-24.15 682.46-22.75 682.94-21.35 682.94-19.7L682.94-19.7Q682.94-17.3 682.94-14.85 682.94-12.4 682.94-9.98 682.94-7.55 682.94-5.1L682.94-5.1Q682.94-3.8 682.94-2.53 682.94-1.25 682.94 0L682.94 0Q681.69 0 680.59 0 679.49 0 678.19 0L678.19 0Q678.04 0 677.91-0.08 677.79-0.15 677.71-0.25 677.64-0.35 677.64-0.55L677.64-0.55Q677.64-3.55 677.64-6.55 677.64-9.55 677.64-12.58 677.64-15.6 677.64-18.6L677.64-18.6Q677.64-20.4 676.79-21.28 675.94-22.15 674.29-22.15L674.29-22.15Q673.34-22.15 672.26-21.85 671.19-21.55 670.11-20.93 669.04-20.3 667.96-19.38 666.89-18.45 665.84-17.15ZM693.73-0.55L693.73-0.55Q693.73-2.25 693.73-4.38 693.73-6.5 693.73-8.85 693.73-11.2 693.73-13.55 693.73-15.9 693.73-18.05 693.73-20.2 693.73-21.9L693.73-21.9 693.18-21.9Q692.78-21.9 692.33-21.9 691.88-21.9 691.38-21.9 690.88-21.9 690.38-21.9 689.88-21.9 689.43-21.9L689.43-21.9Q689.18-21.9 689.03-22.05 688.88-22.2 688.88-22.45L688.88-22.45Q688.88-23.5 688.88-24.58 688.88-25.65 688.88-26.7L688.88-26.7Q689.68-26.7 690.71-26.7 691.73-26.7 692.81-26.7 693.88-26.7 694.91-26.7 695.93-26.7 696.86-26.7 697.78-26.7 698.48-26.7L698.48-26.7Q698.68-26.7 698.78-26.63 698.88-26.55 698.96-26.43 699.03-26.3 699.03-26.15L699.03-26.15Q699.03-23.65 699.03-20.93 699.03-18.2 699.03-15.4 699.03-12.6 699.03-9.9 699.03-7.2 699.03-4.7L699.03-4.7Q699.03-3.95 699.03-3.15 699.03-2.35 699.03-1.58 699.03-0.8 699.03 0L699.03 0Q697.78 0 696.68 0 695.58 0 694.28 0L694.28 0Q694.08 0 693.91-0.15 693.73-0.3 693.73-0.55ZM692.88-33.65L692.88-39.1Q693.68-39.1 694.51-39.1 695.33-39.1 696.16-39.1 696.98-39.1 697.81-39.1 698.63-39.1 699.43-39.1L699.43-39.1Q699.68-39.1 699.83-38.95 699.98-38.8 699.98-38.55L699.98-38.55 699.98-33.1Q699.18-33.1 698.36-33.1 697.53-33.1 696.71-33.1 695.88-33.1 695.06-33.1 694.23-33.1 693.43-33.1L693.43-33.1Q693.18-33.1 693.03-33.25 692.88-33.4 692.88-33.65L692.88-33.65ZM730.43 0L730.43 0Q729.18 0 728.08 0 726.98 0 725.68 0L725.68 0Q725.53 0 725.41-0.08 725.28-0.15 725.21-0.25 725.13-0.35 725.13-0.55L725.13-0.55Q725.13-3.55 725.13-6.58 725.13-9.6 725.13-12.6 725.13-15.6 725.13-18.6L725.13-18.6Q725.13-20.4 724.28-21.28 723.43-22.15 721.78-22.15L721.78-22.15Q720.83-22.15 719.76-21.85 718.68-21.55 717.61-20.93 716.53-20.3 715.46-19.38 714.38-18.45 713.33-17.15L713.33-17.15 713.33-22.3 714.93-22.3Q716.03-23.8 717.33-24.9 718.63-26 720.16-26.63 721.68-27.25 723.43-27.25L723.43-27.25Q725.08-27.25 726.38-26.73 727.68-26.2 728.58-25.18 729.48-24.15 729.96-22.75 730.43-21.35 730.43-19.7L730.43-19.7Q730.43-17.3 730.43-14.85 730.43-12.4 730.43-9.98 730.43-7.55 730.43-5.1L730.43-5.1Q730.43-3.8 730.43-2.53 730.43-1.25 730.43 0ZM714.13 0L714.13 0Q713.28 0 712.53 0 711.78 0 710.98 0 710.18 0 709.38 0L709.38 0Q709.23 0 709.13-0.03 709.03-0.05 708.96-0.13 708.88-0.2 708.86-0.3 708.83-0.4 708.83-0.55L708.83-0.55Q708.83-3.2 708.83-5.88 708.83-8.55 708.83-11.18 708.83-13.8 708.83-16.45 708.83-19.1 708.83-21.75L708.83-21.75Q708.83-23.3 708.83-24.58 708.83-25.85 708.83-26.7L708.83-26.7Q709.73-26.7 710.53-26.7 711.33-26.7 712.08-26.7 712.83-26.7 713.58-26.7L713.58-26.7Q713.78-26.7 713.88-26.63 713.98-26.55 714.06-26.45 714.13-26.35 714.13-26.15L714.13-26.15Q714.13-21.8 714.13-17.45 714.13-13.1 714.13-8.72 714.13-4.35 714.13 0ZM739.88-4.1L739.88-4.1Q739.88-5.2 740.23-6.1 740.58-7 741.35-7.68 742.13-8.35 743.28-8.8L743.28-8.8 743.28-10.15 746.13-9.1Q745.63-8.3 745.4-7.43 745.18-6.55 745.18-5.55L745.18-5.55Q745.18-4.75 745.58-4.4 745.98-4.05 746.73-4.05L746.73-4.05 753.78-4.05Q756.63-4.05 758.48-3.1 760.33-2.15 761.23-0.43 762.13 1.3 762.13 3.5L762.13 3.5 762.13 5.1Q762.13 6.7 761.58 8.05 761.03 9.4 759.93 10.4 758.83 11.4 757.2 11.95 755.58 12.5 753.48 12.5L753.48 12.5 743.78 12.5Q741.18 12.5 739.45 11.75 737.73 11 736.85 9.65 735.98 8.3 735.98 6.45L735.98 6.45 735.98 5.55Q735.98 4.05 736.6 2.85 737.23 1.65 738.38 0.85 739.53 0.05 741.08-0.2L741.08-0.2 741.08-1.9 744.48 0.25Q743.23 0.5 742.55 1.07 741.88 1.65 741.55 2.45 741.23 3.25 741.23 4.15L741.23 4.15 741.23 5.45Q741.23 6.4 741.6 7.08 741.98 7.75 742.78 8.13 743.58 8.5 744.88 8.5L744.88 8.5 753.28 8.5Q754.23 8.5 754.93 8.2 755.63 7.9 756.03 7.5L756.03 7.5Q756.48 7.05 756.68 6.43 756.88 5.8 756.88 5.05L756.88 5.05 756.88 3.8Q756.88 2.25 756.08 1.4 755.28 0.55 753.28 0.55L753.28 0.55 744.53 0.55Q743.28 0.55 742.23-0.05 741.18-0.65 740.53-1.7 739.88-2.75 739.88-4.1ZM751.48-22.8L751.48-22.8 755.83-23.05 755.83-21.9Q757.58-21.2 758.33-19.98 759.08-18.75 759.08-17.1L759.08-17.1 759.08-16.15Q759.08-13.85 757.85-12.2 756.63-10.55 754.2-9.63 751.78-8.7 748.28-8.7L748.28-8.7Q744.78-8.7 742.3-9.73 739.83-10.75 738.53-12.65 737.23-14.55 737.23-17.15L737.23-17.15 737.23-18.35Q737.23-21.05 738.53-23 739.83-24.95 742.3-26.03 744.78-27.1 748.28-27.1L748.28-27.1Q751.68-27.1 755.08-27.1 758.48-27.1 761.88-27.1L761.88-27.1Q761.88-26.1 761.88-25.1 761.88-24.1 761.88-23.1L761.88-23.1Q761.88-22.9 761.73-22.73 761.58-22.55 761.33-22.55L761.33-22.55Q759.18-22.55 757.08-22.55 754.98-22.55 752.83-22.55 750.68-22.55 748.28-22.55L748.28-22.55Q745.48-22.55 743.93-21.45 742.38-20.35 742.38-18.15L742.38-18.15 742.38-17.15Q742.38-16.25 742.65-15.6 742.93-14.95 743.48-14.4L743.48-14.4Q744.23-13.7 745.43-13.3 746.63-12.9 748.28-12.9L748.28-12.9Q751.08-12.9 752.53-14.03 753.98-15.15 753.98-17.25L753.98-17.25 753.98-18.4Q753.98-19.3 753.73-20.05 753.48-20.8 752.95-21.48 752.43-22.15 751.48-22.8ZM793.72-14.1L798.32-16.2Q799.72-13.65 801-11.33 802.27-9 803.62-6.45L803.62-6.45Q804.17-5.5 804.65-5.15 805.12-4.8 805.82-4.8L805.82-4.8Q806.12-4.8 806.27-4.8 806.42-4.8 806.62-4.8L806.62-4.8 807.42-4.8Q807.42-3.65 807.42-2.68 807.42-1.7 807.42-0.55L807.42-0.55Q807.42-0.3 807.27-0.15 807.12 0 806.87 0L806.87 0Q806.52 0 806.02 0 805.52 0 805.07 0L805.07 0Q803.57 0 802.52-0.33 801.47-0.65 800.67-1.4 799.87-2.15 799.17-3.45L799.17-3.45Q797.82-6.1 796.45-8.78 795.07-11.45 793.72-14.1L793.72-14.1ZM780.92-35L780.92-35Q784.42-35 787.92-35 791.42-35 794.92-35L794.92-35Q797.72-35 799.77-34.33 801.82-33.65 803.15-32.35 804.47-31.05 805.1-29.23 805.72-27.4 805.72-25.1L805.72-25.1 805.72-22.55Q805.72-20.3 805.05-18.53 804.37-16.75 803.05-15.5 801.72-14.25 799.87-13.6 798.02-12.95 795.62-12.95L795.62-12.95Q793.92-12.95 792.15-12.95 790.37-12.95 788.62-12.95L788.62-12.95 788.07-12.65 788.07-17.65Q789.82-17.65 791.55-17.65 793.27-17.65 795.02-17.65L795.02-17.65Q796.82-17.65 797.97-18.2 799.12-18.75 799.67-19.85 800.22-20.95 800.22-22.55L800.22-22.55 800.22-25.25Q800.22-26.45 799.92-27.35 799.62-28.25 799.02-28.85L799.02-28.85Q798.42-29.5 797.42-29.85 796.42-30.2 795.02-30.2L795.02-30.2Q792.77-30.2 790.5-30.2 788.22-30.2 785.97-30.2 783.72-30.2 781.47-30.2L781.47-30.2Q781.22-30.2 781.07-30.35 780.92-30.5 780.92-30.75L780.92-30.75Q780.92-31.85 780.92-32.88 780.92-33.9 780.92-35ZM789.17 0L789.17 0Q787.92 0 786.75 0 785.57 0 784.27 0L784.27 0Q784.02 0 783.87-0.15 783.72-0.3 783.72-0.55L783.72-0.55Q783.72-4.65 783.72-8.58 783.72-12.5 783.72-16.38 783.72-20.25 783.72-24.2 783.72-28.15 783.72-32.2L783.72-32.2 789.77-32.2 789.17-31.1Q789.17-29.05 789.17-27 789.17-24.95 789.17-22.95L789.17-22.95Q789.17-19.95 789.17-17.03 789.17-14.1 789.17-11.13 789.17-8.15 789.17-4.95L789.17-4.95Q789.17-3.6 789.17-2.35 789.17-1.1 789.17 0ZM824.02-27.25L824.02-27.25Q827.17-27.25 829.65-25.98 832.12-24.7 833.57-22.23 835.02-19.75 835.02-16.05L835.02-16.05 835.02-12.2Q835.02-12.05 834.95-11.93 834.87-11.8 834.77-11.75 834.67-11.7 834.47-11.7L834.47-11.7 821.97-11.7Q821.17-11.7 820.32-11.7 819.47-11.7 818.62-11.7L818.62-11.7 816.92-11.7 816.47-15.25 829.82-15.25Q829.82-15.5 829.82-15.73 829.82-15.95 829.82-16.15L829.82-16.15Q829.82-17.95 829.45-19.25 829.07-20.55 828.22-21.3L828.22-21.3Q827.52-22.05 826.47-22.38 825.42-22.7 824.02-22.7L824.02-22.7Q821.07-22.7 819.5-21.15 817.92-19.6 817.92-16.05L817.92-16.05 817.92-10.55Q817.92-9.05 818.32-7.9 818.72-6.75 819.47-5.95L819.47-5.95Q820.42-5 821.92-4.55 823.42-4.1 825.47-4.1L825.47-4.1Q827.32-4.1 828.7-4.3 830.07-4.5 831.27-4.88 832.47-5.25 833.67-5.8L833.67-5.8 834.52-5.8Q834.52-4.85 834.52-3.85 834.52-2.85 834.52-1.85L834.52-1.85Q834.52-1.75 834.47-1.65 834.42-1.55 834.32-1.45L834.32-1.45Q833.87-1 832.52-0.53 831.17-0.05 829.3 0.25 827.42 0.55 825.27 0.55L825.27 0.55Q822.32 0.55 819.95-0.18 817.57-0.9 815.95-2.3 814.32-3.7 813.47-5.78 812.62-7.85 812.62-10.55L812.62-10.55 812.62-15.95Q812.62-18.7 813.47-20.83 814.32-22.95 815.87-24.38 817.42-25.8 819.52-26.53 821.62-27.25 824.02-27.25ZM863.97-17.4L863.97-17.4Q863.97-16.05 863.97-14.73 863.97-13.4 863.97-12.03 863.97-10.65 863.97-9.3 863.97-7.95 863.97-6.7L863.97-6.7Q863.97-6.1 864.09-5.7 864.22-5.3 864.42-5.05L864.42-5.05Q864.67-4.85 864.99-4.75 865.32-4.65 865.77-4.65L865.77-4.65Q865.87-4.65 865.99-4.65 866.12-4.65 866.27-4.65L866.27-4.65 867.07-4.65Q867.07-3.6 867.07-2.6 867.07-1.6 867.07-0.55L867.07-0.55Q867.07-0.3 866.92-0.15 866.77 0 866.52 0L866.52 0Q866.27 0 865.59 0 864.92 0 864.42 0L864.42 0Q863.12 0 862.09-0.38 861.07-0.75 860.29-1.5 859.52-2.25 859.09-3.33 858.67-4.4 858.67-5.8L858.67-5.8Q858.67-7.5 858.67-9.28 858.67-11.05 858.67-12.75L858.67-12.75Q858.67-13.55 858.67-14.35 858.67-15.15 858.67-15.95 858.67-16.75 858.67-17.55L858.67-17.55Q858.67-19.35 858.12-20.38 857.57-21.4 856.32-21.83 855.07-22.25 852.87-22.25L852.87-22.25Q851.42-22.25 850.09-22.1 848.77-21.95 847.49-21.65 846.22-21.35 844.92-20.9L844.92-20.9 844.07-20.9Q844.07-21.95 844.07-23 844.07-24.05 844.07-25.05L844.07-25.05Q844.07-25.25 844.12-25.35 844.17-25.45 844.22-25.5L844.22-25.5Q844.52-25.8 845.82-26.2 847.12-26.6 848.99-26.9 850.87-27.2 852.87-27.2L852.87-27.2Q855.77-27.2 857.87-26.65 859.97-26.1 861.32-24.93 862.67-23.75 863.32-21.9 863.97-20.05 863.97-17.4ZM847.47-8.85L847.47-7.25Q847.47-5.8 848.32-5.03 849.17-4.25 850.87-4.25L850.87-4.25Q852.47-4.25 853.89-4.65 855.32-5.05 856.72-6 858.12-6.95 859.62-8.6L859.62-8.6 859.62-4.25 858.12-4.25Q857.37-2.75 856.14-1.68 854.92-0.6 853.32-0.05 851.72 0.5 849.77 0.5L849.77 0.5Q847.42 0.5 845.72-0.38 844.02-1.25 843.09-2.85 842.17-4.45 842.17-6.65L842.17-6.65 842.17-8.3Q842.17-9.95 842.72-11.25 843.27-12.55 844.29-13.48 845.32-14.4 846.77-14.9 848.22-15.4 850.02-15.4L850.02-15.4Q851.77-15.4 853.42-15.4 855.07-15.4 856.64-15.4 858.22-15.4 859.77-15.4L859.77-15.4Q860.17-15.4 860.39-14.8 860.62-14.2 860.67-13.38 860.72-12.55 860.72-11.85L860.72-11.85Q858.92-11.85 857.37-11.85 855.82-11.85 854.24-11.85 852.67-11.85 850.87-11.85L850.87-11.85Q849.97-11.85 849.34-11.65 848.72-11.45 848.27-11L848.27-11Q847.92-10.6 847.69-10.08 847.47-9.55 847.47-8.85L847.47-8.85ZM880.77-27.25L880.77-27.25Q882.52-27.25 883.92-26.73 885.32-26.2 886.44-25.23 887.57-24.25 888.42-22.85L888.42-22.85 889.97-22.85 889.97-17.25Q888.27-19.75 886.32-20.95 884.37-22.15 882.32-22.15L882.32-22.15Q880.82-22.15 879.72-21.5 878.62-20.85 878.02-19.58 877.42-18.3 877.42-16.45L877.42-16.45 877.42-10.1Q877.42-8.65 877.79-7.58 878.17-6.5 878.77-5.85L878.77-5.85Q879.42-5.25 880.32-4.93 881.22-4.6 882.32-4.6L882.32-4.6Q883.67-4.6 884.97-5.08 886.27-5.55 887.54-6.65 888.82-7.75 889.97-9.5L889.97-9.5 889.97-4 888.42-4Q887.57-2.6 886.39-1.58 885.22-0.55 883.79-0.03 882.37 0.5 880.67 0.5L880.67 0.5Q878.77 0.5 877.19-0.15 875.62-0.8 874.49-2.08 873.37-3.35 872.74-5.15 872.12-6.95 872.12-9.25L872.12-9.25 872.12-17.3Q872.12-19.65 872.74-21.48 873.37-23.3 874.49-24.6 875.62-25.9 877.22-26.58 878.82-27.25 880.77-27.25ZM893.97-37.5L893.97-37.5Q894.17-37.5 894.27-37.43 894.37-37.35 894.44-37.25 894.52-37.15 894.52-36.95L894.52-36.95Q894.52-33.15 894.52-29.23 894.52-25.3 894.52-21.4 894.52-17.5 894.52-13.73 894.52-9.95 894.52-6.4L894.52-6.4Q894.52-4.6 894.52-3 894.52-1.4 894.52 0L894.52 0Q893.97 0 893.37 0 892.77 0 892.17 0 891.57 0 890.97 0 890.37 0 889.77 0L889.77 0Q889.62 0 889.49-0.08 889.37-0.15 889.29-0.25 889.22-0.35 889.22-0.55L889.22-0.55Q889.22-4.55 889.22-8.55 889.22-12.55 889.22-16.53 889.22-20.5 889.22-24.5 889.22-28.5 889.22-32.5L889.22-32.5Q889.22-33.75 889.22-35 889.22-36.25 889.22-37.5L889.22-37.5Q889.82-37.5 890.42-37.5 891.02-37.5 891.62-37.5 892.22-37.5 892.82-37.5 893.42-37.5 893.97-37.5ZM914.01-27.25L914.01-27.25Q917.16-27.25 919.64-25.98 922.11-24.7 923.56-22.23 925.01-19.75 925.01-16.05L925.01-16.05 925.01-12.2Q925.01-12.05 924.94-11.93 924.86-11.8 924.76-11.75 924.66-11.7 924.46-11.7L924.46-11.7 911.96-11.7Q911.16-11.7 910.31-11.7 909.46-11.7 908.61-11.7L908.61-11.7 906.91-11.7 906.46-15.25 919.81-15.25Q919.81-15.5 919.81-15.73 919.81-15.95 919.81-16.15L919.81-16.15Q919.81-17.95 919.44-19.25 919.06-20.55 918.21-21.3L918.21-21.3Q917.51-22.05 916.46-22.38 915.41-22.7 914.01-22.7L914.01-22.7Q911.06-22.7 909.49-21.15 907.91-19.6 907.91-16.05L907.91-16.05 907.91-10.55Q907.91-9.05 908.31-7.9 908.71-6.75 909.46-5.95L909.46-5.95Q910.41-5 911.91-4.55 913.41-4.1 915.46-4.1L915.46-4.1Q917.31-4.1 918.69-4.3 920.06-4.5 921.26-4.88 922.46-5.25 923.66-5.8L923.66-5.8 924.51-5.8Q924.51-4.85 924.51-3.85 924.51-2.85 924.51-1.85L924.51-1.85Q924.51-1.75 924.46-1.65 924.41-1.55 924.31-1.45L924.31-1.45Q923.86-1 922.51-0.53 921.16-0.05 919.29 0.25 917.41 0.55 915.26 0.55L915.26 0.55Q912.31 0.55 909.94-0.18 907.56-0.9 905.94-2.3 904.31-3.7 903.46-5.78 902.61-7.85 902.61-10.55L902.61-10.55 902.61-15.95Q902.61-18.7 903.46-20.83 904.31-22.95 905.86-24.38 907.41-25.8 909.51-26.53 911.61-27.25 914.01-27.25ZM938.01-15.15L938.01-21.55 939.71-21.55Q940.66-23.6 941.79-24.83 942.91-26.05 944.34-26.63 945.76-27.2 947.46-27.2L947.46-27.2Q948.36-27.2 948.96-27.08 949.56-26.95 949.91-26.75L949.91-26.75Q950.16-26.6 950.24-26.45 950.31-26.3 950.31-26.05L950.31-26.05Q950.31-25.45 950.31-24.85 950.31-24.25 950.31-23.68 950.31-23.1 950.31-22.53 950.31-21.95 950.31-21.35L950.31-21.35 949.46-21.35Q948.76-21.55 948.11-21.65 947.46-21.75 946.61-21.75L946.61-21.75Q944.86-21.75 943.39-21.1 941.91-20.45 940.59-19.03 939.26-17.6 938.01-15.15L938.01-15.15ZM938.86 0L938.86 0Q938.06 0 937.21 0 936.36 0 935.54 0 934.71 0 933.86 0L933.86 0Q933.71 0 933.61-0.03 933.51-0.05 933.44-0.13 933.36-0.2 933.34-0.3 933.31-0.4 933.31-0.55L933.31-0.55Q933.31-1.85 933.31-3.75 933.31-5.65 933.31-7.9 933.31-10.15 933.31-12.55 933.31-14.95 933.31-17.3 933.31-19.65 933.31-21.75L933.31-21.75Q933.31-23.3 933.31-24.58 933.31-25.85 933.31-26.7L933.31-26.7Q934.21-26.7 935.09-26.7 935.96-26.7 936.76-26.7 937.56-26.7 938.31-26.7L938.31-26.7Q938.51-26.7 938.61-26.63 938.71-26.55 938.79-26.45 938.86-26.35 938.86-26.15L938.86-26.15Q938.86-24.5 938.86-22.2 938.86-19.9 938.86-17.15 938.86-14.4 938.86-11.43 938.86-8.45 938.86-5.53 938.86-2.6 938.86 0ZM964.26-4.65L964.26-4.65Q967.66-4.65 969.06-5.58 970.46-6.5 970.46-7.9L970.46-7.9Q970.46-8.7 970.11-9.3 969.76-9.9 968.91-10.33 968.06-10.75 966.61-11L966.61-11 961.61-11.9Q959.16-12.4 957.58-13.33 956.01-14.25 955.26-15.65 954.51-17.05 954.51-18.9L954.51-18.9Q954.51-20.7 955.28-22.23 956.06-23.75 957.56-24.85 959.06-25.95 961.26-26.55 963.46-27.15 966.36-27.15L966.36-27.15Q968.11-27.15 969.51-27 970.91-26.85 971.96-26.63 973.01-26.4 973.71-26.15L973.71-26.15Q974.06-26.05 974.18-25.93 974.31-25.8 974.33-25.63 974.36-25.45 974.36-25.15L974.36-25.15Q974.36-24.3 974.36-23.1 974.36-21.9 974.36-20.85L974.36-20.85 973.56-20.85Q972.26-21.3 971.08-21.58 969.91-21.85 968.63-21.95 967.36-22.05 965.76-22.05L965.76-22.05Q963.71-22.05 962.38-21.63 961.06-21.2 960.43-20.53 959.81-19.85 959.81-19.05L959.81-19.05Q959.81-18.3 960.13-17.78 960.46-17.25 961.28-16.9 962.11-16.55 963.61-16.25L963.61-16.25 968.51-15.3Q970.76-14.95 972.36-13.98 973.96-13 974.83-11.5 975.71-10 975.71-7.95L975.71-7.95Q975.71-5.4 974.36-3.5 973.01-1.6 970.46-0.58 967.91 0.45 964.31 0.45L964.31 0.45Q962.51 0.45 960.96 0.3 959.41 0.15 958.13-0.13 956.86-0.4 955.86-0.78 954.86-1.15 954.11-1.55L954.11-1.55Q953.91-1.7 953.83-1.8 953.76-1.9 953.76-2.25L953.76-2.25Q953.76-3.2 953.76-4.45 953.76-5.7 953.76-6.85L953.76-6.85 954.56-6.85Q955.66-6.25 956.73-5.83 957.81-5.4 958.96-5.15 960.11-4.9 961.43-4.78 962.76-4.65 964.26-4.65Z" opacity="1" transform="matrix(1,0,0,1,0,0)" fill="#471aa0" class="slogan-text-1" data-fill-palette-color="secondary" id="text-1"></path></svg></g></svg></g></svg></g></svg></g><g transform="matrix(1,0,0,1,120.0326371538404,0)"><svg viewBox="0 0 155.4547256923192 155.4547256923192" height="155.4547256923192" width="155.4547256923192"><g><svg></svg></g><g id="icon-0"><svg viewBox="0 0 155.4547256923192 155.4547256923192" height="155.4547256923192" width="155.4547256923192"><g><path d="M0 77.727c0-42.928 34.8-77.727 77.727-77.727 42.928 0 77.727 34.8 77.728 77.727 0 42.928-34.8 77.727-77.728 77.728-42.928 0-77.727-34.8-77.727-77.728zM77.727 153.194c41.679 0 75.467-33.788 75.467-75.467 0-41.679-33.788-75.467-75.467-75.466-41.679 0-75.467 33.788-75.466 75.466 0 41.679 33.788 75.467 75.466 75.467z" data-fill-palette-color="accent" fill="#471aa0" stroke="transparent"></path><ellipse rx="76.950089217698" ry="76.950089217698" cx="77.7273628461596" cy="77.7273628461596" fill="#471aa0" stroke="transparent" stroke-width="0" fill-opacity="1" data-fill-palette-color="accent"></ellipse></g><g transform="matrix(1,0,0,1,32.86255586298473,37.327364312606086)"><svg viewBox="0 0 89.72961396634973 80.79999706710701" height="80.79999706710701" width="89.72961396634973"><g><svg xmlns="http://www.w3.org/2000/svg" xmlns:xlink="http://www.w3.org/1999/xlink" version="1.1" x="0" y="0" viewBox="22.014623641967773 15.850245475769043 69.99107360839844 63.02577590942383" enable-background="new 0 0 100 100" xml:space="preserve" height="80.79999706710701" width="89.72961396634973" class="icon-s-0" data-fill-palette-color="quaternary" id="s-0"><g fill="#a437db" data-fill-palette-color="quaternary"><g fill="#a437db" data-fill-palette-color="quaternary"><g fill="#a437db" data-fill-palette-color="quaternary"><path fill="#a437db" d="M91.865 16.135c-6.135-1.711-10.645 4.663-13.29 9.126-5.336 9.003-8.452 19.206-12.375 28.855-1.949 4.794-6.213 13.141-12.608 10.238-6.583-2.987-2.926-13.422-0.084-17.583 3.853-5.642 10.556-9.127 15.741-13.379C75.856 27.976 80.747 18.4 90.026 17.2c0.681-0.088 3.166-1.311 1.281-1.066-6.064 0.784-10.793 3.771-15.21 7.902-2.984 2.791-5.507 6.031-8.504 8.808-2.876 2.664-6.223 4.832-9.347 7.188-5.828 4.394-10.311 9.5-11.112 17.001-0.504 4.713 2.548 9.467 7.635 9.079 10.379-0.791 13.715-10.933 16.888-19.199 2.299-5.991 4.62-11.977 7.416-17.758 1.471-3.042 5.908-13.206 10.396-11.955C90.101 17.376 92.623 16.346 91.865 16.135L91.865 16.135z" data-fill-palette-color="quaternary"></path></g></g><g fill="#a437db" data-fill-palette-color="quaternary"><g fill="#a437db" data-fill-palette-color="quaternary"><path fill="#a437db" d="M53.032 64.633c0.677-6.665 6.103-12.025 10.6-16.543 0.314-0.316-0.392-0.386-0.598-0.18-4.542 4.564-10.047 10.045-10.732 16.791C52.267 65.047 53.002 64.93 53.032 64.633L53.032 64.633z" data-fill-palette-color="quaternary"></path></g></g><g fill="#a437db" data-fill-palette-color="quaternary"><g fill="#a437db" data-fill-palette-color="quaternary"><path fill="#a437db" d="M46.41 76.161c1.095-4.546 3.756-8.307 6-12.333 0.229-0.41-1.827-0.244-2.154 0.344-2.244 4.025-4.905 7.786-6 12.333C44.109 77.111 46.264 76.77 46.41 76.161L46.41 76.161z" data-fill-palette-color="quaternary"></path></g></g><g fill="#a437db" data-fill-palette-color="quaternary"><g fill="#a437db" data-fill-palette-color="quaternary"><path fill="#a437db" d="M26.722 62.644c3.006-0.093 5.858-0.654 8.75-1.458-0.529-0.044-1.059-0.087-1.588-0.13 0.038 4.132 1.207 6.061 5.505 5.921-0.279-0.085-0.559-0.17-0.838-0.255 0.348 4.213 1.879 10.599-4.255 10.892-2.171 0.104-4.413-0.318-6.573-0.507-2.071-0.181-1.961-1.926-2.328-3.758-0.28-1.399-0.715-3.53 0.185-4.78 0.755-1.049 2.423-1.618 3.493-2.319 2.386-1.565 1.633-3.244-0.379-4.761-0.684-0.516-3.248 0.626-2.721 1.023 4.062 3.062-0.925 4.104-3.036 6.204-2.028 2.018-0.197 7.136 0.614 9.34 0.072 0.193 0.348 0.248 0.522 0.252 4.888 0.122 9.979 1.59 14.584-0.74 4.414-2.232 3.121-7.628 2.792-11.623-0.024-0.294-0.677-0.26-0.838-0.255-3.642 0.119-3.803-2.537-3.829-5.411-0.005-0.481-1.401-0.182-1.588-0.13-2.397 0.667-4.753 1.132-7.25 1.208C27.103 61.383 24.789 62.703 26.722 62.644L26.722 62.644z" data-fill-palette-color="quaternary"></path></g></g></g></svg></g></svg></g></svg></g></svg></g><g></g></svg></g><defs></defs></svg><rect width="395.52" height="211.22168572106312" fill="none" stroke="none" visibility="hidden"></rect></g></svg></g></svg>